<svg width="150" height="150" viewBox="0 0 150 150" fill="none" xmlns="http://www.w3.org/2000/svg">
<g clip-path="url(#clip0_3_2)">
<path d="M135.709 99.3713C135.709 101.794 134.094 103.409 131.671 103.409H18.6218C16.1993 103.409 14.5844 101.794 14.5844 99.3713V22.6593C14.5844 20.2368 16.1993 18.6218 18.6218 18.6218H131.671C134.094 18.6218 135.709 20.2368 135.709 22.6593V99.3713Z" fill="#00BBFF"/>
<path d="M135.709 99.3713C135.709 101.794 134.094 103.409 131.671 103.409H18.6218C16.1993 103.409 14.5844 101.794 14.5844 99.3713V22.6593C14.5844 20.2368 16.1993 18.6218 18.6218 18.6218H131.671C134.094 18.6218 135.709 20.2368 135.709 22.6593V99.3713Z" stroke="black" stroke-width="2.95313" stroke-miterlimit="10" stroke-linecap="round" stroke-linejoin="round"/>
<path d="M75.1465 107.446V119.559" stroke="black" stroke-width="8.07495" stroke-miterlimit="10" stroke-linecap="round" stroke-linejoin="round"/>
<path d="M87.2589 115.521H95.3339L103.409 131.671H46.8842L54.9591 115.521H75.1465" stroke="black" stroke-width="3.19922" stroke-miterlimit="10" stroke-linecap="round" stroke-linejoin="round"/>
<path d="M91.2964 54.9591H83.2214C80.799 54.9591 79.184 53.3441 79.184 50.9216V42.8467C79.184 40.4242 80.799 38.8092 83.2214 38.8092H91.2964C93.7189 38.8092 95.3339 40.4242 95.3339 42.8467V50.9216C95.3339 53.3441 93.7189 54.9591 91.2964 54.9591Z" fill="black"/>
<path d="M115.521 54.9591H107.446C105.024 54.9591 103.409 53.3441 103.409 50.9216V42.8467C103.409 40.4242 105.024 38.8092 107.446 38.8092H115.521C117.944 38.8092 119.559 40.4242 119.559 42.8467V50.9216C119.559 53.3441 117.944 54.9591 115.521 54.9591Z" fill="black"/>
<path d="M67.0715 54.9591H58.9966C56.5741 54.9591 54.9591 53.3441 54.9591 50.9216V42.8467C54.9591 40.4242 56.5741 38.8092 58.9966 38.8092H67.0715C69.494 38.8092 71.109 40.4242 71.109 42.8467V50.9216C71.109 53.3441 69.494 54.9591 67.0715 54.9591Z" fill="black"/>
<path d="M42.8467 54.9591H34.7717C32.3492 54.9591 30.7343 53.3441 30.7343 50.9216V42.8467C30.7343 40.4242 32.3492 38.8092 34.7717 38.8092H42.8467C45.2692 38.8092 46.8842 40.4242 46.8842 42.8467V50.9216C46.8842 53.3441 45.2692 54.9591 42.8467 54.9591Z" fill="black"/>
<path d="M91.2964 83.2214H83.2214C80.799 83.2214 79.184 81.6064 79.184 79.184V71.109C79.184 68.6865 80.799 67.0715 83.2214 67.0715H91.2964C93.7189 67.0715 95.3339 68.6865 95.3339 71.109V79.184C95.3339 81.6064 93.7189 83.2214 91.2964 83.2214Z" fill="black"/>
<path d="M115.521 83.2214H107.446C105.024 83.2214 103.409 81.6064 103.409 79.184V71.109C103.409 68.6865 105.024 67.0715 107.446 67.0715H115.521C117.944 67.0715 119.559 68.6865 119.559 71.109V79.184C119.559 81.6064 117.944 83.2214 115.521 83.2214Z" fill="black"/>
<path d="M67.0715 83.2214H58.9966C56.5741 83.2214 54.9591 81.6064 54.9591 79.184V71.109C54.9591 68.6865 56.5741 67.0715 58.9966 67.0715H67.0715C69.494 67.0715 71.109 68.6865 71.109 71.109V79.184C71.109 81.6064 69.494 83.2214 67.0715 83.2214Z" fill="black"/>
<path d="M42.8467 83.2214H34.7717C32.3492 83.2214 30.7343 81.6064 30.7343 79.184V71.109C30.7343 68.6865 32.3492 67.0715 34.7717 67.0715H42.8467C45.2692 67.0715 46.8842 68.6865 46.8842 71.109V79.184C46.8842 81.6064 45.2692 83.2214 42.8467 83.2214Z" fill="black"/>
</g>
<defs>
<clipPath id="clip0_3_2">
<rect width="150" height="150" fill="white"/>
</clipPath>
</defs>
</svg>
